HIERARCHY
ROOT Hips
{
	OFFSET 0.000000 0.000000 0.000000
	CHANNELS 6 Xposition Yposition Zposition Zrotation Yrotation Xrotation 
	JOINT LHipJoint
	{
		OFFSET 0.000000 0.000000 0.000000
		CHANNELS 3 Zrotation Yrotation Xrotation
		JOINT LeftUpLeg
		{
			OFFSET 1.363060 -1.794630 0.839290
			CHANNELS 3 Zrotation Yrotation Xrotation
			JOINT LeftLeg
			{
				OFFSET 2.448110 -6.726130 0.000000
				CHANNELS 3 Zrotation Yrotation Xrotation
				JOINT LeftFoot
				{
					OFFSET 2.562200 -7.039590 0.000000
					CHANNELS 3 Zrotation Yrotation Xrotation
					JOINT LeftToeBase
					{
						OFFSET 0.157640 -0.433110 2.322550
						CHANNELS 3 Zrotation Yrotation Xrotation
						End Site
						{
							OFFSET 0.000000 0.000000 0.000000
						}
					}
				}
			}
		}
	}
	JOINT RHipJoint
	{
		OFFSET 0.000000 0.000000 0.000000
		CHANNELS 3 Zrotation Yrotation Xrotation
		JOINT RightUpLeg
		{
			OFFSET -1.305520 -1.794630 0.839290
			CHANNELS 3 Zrotation Yrotation Xrotation
			JOINT RightLeg
			{
				OFFSET -2.542530 -6.985550 0.000000
				CHANNELS 3 Zrotation Yrotation Xrotation
				JOINT RightFoot
				{
					OFFSET -2.568260 -7.056230 0.000000
					CHANNELS 3 Zrotation Yrotation Xrotation
					JOINT RightToeBase
					{
						OFFSET -0.164730 -0.452590 2.363150
						CHANNELS 3 Zrotation Yrotation Xrotation
						End Site
						{
							OFFSET 0.000000 0.000000 0.000000
						}
					}
				}
			}
		}
	}
	JOINT LowerBack
	{
		OFFSET 0.000000 0.000000 0.000000
		CHANNELS 3 Zrotation Yrotation Xrotation
		JOINT Spine
		{
			OFFSET 0.028270 2.035590 -0.193380
			CHANNELS 3 Zrotation Yrotation Xrotation
			JOINT Spine1
			{
				OFFSET 0.056720 2.048850 -0.042750
				CHANNELS 3 Zrotation Yrotation Xrotation
				JOINT Neck
				{
					OFFSET 0.000000 0.000000 0.000000
					CHANNELS 3 Zrotation Yrotation Xrotation
					JOINT Neck1
					{
						OFFSET -0.054170 1.746240 0.172020
						CHANNELS 3 Zrotation Yrotation Xrotation
						JOINT Head
						{
							OFFSET 0.104070 1.761360 -0.123970
							CHANNELS 3 Zrotation Yrotation Xrotation
							End Site
							{
								OFFSET 0.000000 0.000000 0.000000
							}
						}
					}
				}
				JOINT LeftShoulder
				{
					OFFSET 0.000000 0.000000 0.000000
					CHANNELS 3 Zrotation Yrotation Xrotation
					JOINT LeftArm
					{
						OFFSET 3.362410 1.200890 -0.311210
						CHANNELS 3 Zrotation Yrotation Xrotation
						JOINT LeftForeArm
						{
							OFFSET 4.983000 -0.000000 -0.000000
							CHANNELS 3 Zrotation Yrotation Xrotation
							JOINT LeftHand
							{
								OFFSET 3.483560 -0.000000 -0.000000
								CHANNELS 3 Zrotation Yrotation Xrotation
								JOINT LeftFingerBase
								{
									OFFSET 0.000000 0.000000 0.000000
									CHANNELS 3 Zrotation Yrotation Xrotation
									JOINT LeftHandIndex1
									{
										OFFSET 0.715260 -0.000000 -0.000000
										CHANNELS 3 Zrotation Yrotation Xrotation
										End Site
										{
											OFFSET 0.000000 0.000000 0.000000
										}
									}
								}
								JOINT LThumb
								{
									OFFSET 0.000000 0.000000 0.000000
									CHANNELS 3 Zrotation Yrotation Xrotation
									End Site
									{
										OFFSET 0.000000 0.000000 0.000000
									}
								}
							}
						}
					}
				}
				JOINT RightShoulder
				{
					OFFSET 0.000000 0.000000 0.000000
					CHANNELS 3 Zrotation Yrotation Xrotation
					JOINT RightArm
					{
						OFFSET -3.136600 1.374050 -0.404650
						CHANNELS 3 Zrotation Yrotation Xrotation
						JOINT RightForeArm
						{
							OFFSET -5.241900 -0.000000 -0.000000
							CHANNELS 3 Zrotation Yrotation Xrotation
							JOINT RightHand
							{
								OFFSET -3.444170 -0.000000 -0.000000
								CHANNELS 3 Zrotation Yrotation Xrotation
								JOINT RightFingerBase
								{
									OFFSET 0.000000 0.000000 0.000000
									CHANNELS 3 Zrotation Yrotation Xrotation
									JOINT RightHandIndex1
									{
										OFFSET -0.622530 -0.000000 -0.000000
										CHANNELS 3 Zrotation Yrotation Xrotation
										End Site
										{
											OFFSET 0.000000 0.000000 0.000000
										}
									}
								}
								JOINT RThumb
								{
									OFFSET 0.000000 0.000000 0.000000
									CHANNELS 3 Zrotation Yrotation Xrotation
									End Site
									{
										OFFSET 0.000000 0.000000 0.000000
									}
								}
							}
						}
					}
				}
			}
		}
	}
}
MOTION
Frames: 7
Frame Time: 0.008333
0.891564 17.854230 -14.634015 -1.022353 -2.442079 5.764849 3.116797 3.044233 1.376574 -20.867749 -9.188218 -4.317387 0.453873 5.040805 17.124858 -0.863791 5.847934 -6.147162 0.014600 -0.780900 -2.146000 -5.354307 -3.617585 0.439994 27.409826 9.846477 -3.102123 -1.491223 -5.163174 17.639445 0.597787 -5.214222 -6.726368 -0.067800 -1.679400 4.620500 0.032687 0.188500 -1.153456 1.605699 -0.334203 -2.969659 3.974182 0.431632 -5.094051 -9.194519 -3.674629 -11.390776 4.101487 -3.939296 20.486550 3.153000 -2.534800 11.383700 -7.535925 3.638457 -2.135086 -88.153343 3.766911 23.018988 9.985516 -17.844926 -1.593421 -0.869899 -2.634766 14.436275 14.427927 23.023639 6.501800 -7.125000 0.000000 0.000000 -16.384900 55.828800 -4.438700 5.790722 -2.883306 -2.330617 84.028547 -5.107787 18.545767 -13.871560 20.558106 -3.242212 0.136971 -0.236916 12.478392 -5.656558 8.143185 -0.850500 7.125000 0.000000 0.000000 15.118800 -21.686900 8.764700 
0.890261 17.855233 -14.637022 -0.948763 -2.495410 5.754673 3.117278 3.043922 1.375269 -20.954472 -9.163358 -4.301125 0.452681 5.035586 17.111194 -0.880402 5.918803 -6.094829 0.013700 -0.756900 -2.080100 -5.353754 -3.616953 0.442606 27.323688 9.873643 -3.155140 -1.499918 -5.188325 17.709100 0.583967 -5.144625 -6.768825 -0.069000 -1.694500 4.662100 -0.080169 0.196910 -1.098548 1.597488 -0.323267 -2.977180 4.016361 0.442515 -5.142368 -9.146191 -3.664814 -11.385389 4.048986 -3.929581 20.484957 3.121800 -2.531100 11.378200 -7.533559 3.634220 -2.133825 -88.163810 3.748341 22.964176 9.986246 -17.844278 -1.595462 -0.853979 -2.635890 14.382032 14.275845 23.024593 6.425400 -7.125000 0.000000 0.000000 -16.551400 55.793500 -4.471300 5.787132 -2.882887 -2.334610 84.023997 -5.153188 18.681820 -13.914619 20.622814 -3.263362 0.142113 -0.242996 12.359257 -5.705758 8.238460 -0.868800 7.125000 0.000000 0.000000 15.070600 -21.588200 8.769900 
0.890662 17.852025 -14.637624 -0.955546 -2.579200 5.669893 3.120792 3.044714 1.374027 -20.973115 -9.108753 -4.270258 0.467743 5.074452 17.228478 -0.877139 5.922911 -6.195463 0.011600 -0.695700 -1.911900 -5.350940 -3.615256 0.433409 27.329716 9.836836 -3.047744 -1.494349 -5.168252 17.658447 0.582111 -5.114748 -6.709305 -0.061700 -1.602500 4.408300 -0.033596 0.237207 -1.071900 1.566322 -0.264158 -2.931721 3.925087 0.462220 -5.062302 -9.116424 -3.672470 -11.417085 4.094769 -3.953810 20.464306 3.134200 -2.532800 11.377800 -7.539765 3.630479 -2.124916 -88.068444 3.615258 23.005947 9.942673 -17.767170 -1.582915 -0.860332 -2.614277 14.398541 14.308482 22.758876 6.379100 -7.125000 0.000000 0.000000 -16.349500 55.525700 -4.307200 5.786246 -2.881049 -2.330274 84.125141 -5.088738 18.616727 -13.934326 20.649006 -3.273480 0.133103 -0.223000 12.337518 -5.595203 8.029912 -0.827900 7.125000 0.000000 0.000000 15.179200 -21.809900 8.758100 
0.892065 17.845309 -14.636020 -0.988712 -2.550458 5.641269 3.122719 3.044579 1.373625 -20.947710 -9.113010 -4.329615 0.474836 5.095644 17.283169 -0.886614 5.961746 -6.146066 0.019800 -0.907500 -2.494300 -5.348024 -3.616667 0.426591 27.372367 9.721753 -3.016876 -1.494408 -5.167039 17.660498 0.589566 -5.154396 -6.694596 -0.036900 -1.240200 3.409900 0.048910 0.253362 -1.075868 1.549118 -0.239309 -2.907278 3.842230 0.467059 -5.005572 -9.093313 -3.691952 -11.483383 4.125294 -3.987403 20.451740 3.139000 -2.540600 11.390800 -7.543938 3.627998 -2.120857 -88.018238 3.536788 23.071360 9.921660 -17.728663 -1.575833 -0.870291 -2.603048 14.389800 14.404349 22.616862 6.393300 -7.125000 0.000000 0.000000 -16.157400 55.401000 -4.205200 5.788122 -2.879604 -2.327153 84.194307 -5.022862 18.509001 -13.931164 20.639383 -3.270667 0.130586 -0.206294 12.328631 -5.560756 7.842096 -0.801800 7.125000 0.000000 0.000000 15.227300 -22.008000 8.716400 
0.891363 17.838091 -14.634316 -1.050594 -2.496753 5.656459 3.123256 3.041999 1.374724 -20.873932 -9.198465 -4.459515 0.481648 5.122965 17.346247 -0.910754 6.077935 -6.119732 0.035600 -1.218700 -3.350800 -5.349597 -3.616210 0.428090 27.464714 9.718208 -2.995492 -1.491406 -5.158862 17.639045 0.611226 -5.277262 -6.668057 -0.022900 -0.977200 2.686100 0.114488 0.251011 -1.049027 1.554105 -0.240989 -2.927198 3.820004 0.466709 -5.062293 -9.106102 -3.717518 -11.534181 4.163227 -4.022872 20.482419 3.151700 -2.553400 11.424400 -7.543438 3.631815 -2.127786 -88.026392 3.624787 23.086535 9.937697 -17.759822 -1.585628 -0.882341 -2.590203 14.425520 14.516884 22.457103 6.410300 -7.125000 0.000000 0.000000 -15.939300 55.261300 -4.091600 5.790371 -2.878675 -2.328358 84.210054 -5.048417 18.449411 -13.899032 20.589941 -3.254075 0.134658 -0.223283 12.424528 -5.628537 8.007664 -0.830700 7.125000 0.000000 0.000000 15.156400 -21.831200 8.736300 
0.889258 17.834081 -14.635719 -1.037907 -2.401093 5.585806 3.122886 3.041016 1.374017 -20.872575 -9.214554 -4.455118 0.487620 5.138839 17.392697 -0.895014 6.005644 -6.137275 0.041700 -1.317600 -3.623000 -5.348006 -3.616233 0.416587 27.476343 9.625790 -2.894985 -1.487797 -5.144922 17.607631 0.615425 -5.306533 -6.700559 -0.019700 -0.907100 2.493200 0.078438 0.205900 -1.004468 1.565068 -0.300481 -2.882372 3.861808 0.434145 -4.974301 -9.172476 -3.743095 -11.658564 4.216300 -4.039187 20.474302 3.181600 -2.558900 11.454400 -7.544109 3.631918 -2.123259 -88.066868 3.537071 23.050236 9.943790 -17.768196 -1.586985 -0.887286 -2.589805 14.447159 14.559892 22.453926 6.430900 -7.125000 0.000000 0.000000 -15.890700 55.268300 -4.081400 5.795254 -2.874847 -2.323808 84.211795 -4.934700 18.400717 -13.886308 20.572817 -3.248857 0.127096 -0.240850 12.515714 -5.563705 8.198489 -0.841700 7.125000 0.000000 0.000000 15.184700 -21.629500 8.826300 
0.887053 17.836387 -14.639328 -0.965784 -2.374790 5.587283 3.125431 3.039228 1.369214 -20.939689 -9.129108 -4.453861 0.491929 5.147548 17.424918 -0.854879 5.823313 -6.205323 0.034600 -1.200700 -3.301200 -5.345016 -3.614698 0.410473 27.400240 9.626090 -2.886260 -1.484867 -5.136219 17.579283 0.616093 -5.314899 -6.714953 -0.021000 -0.935000 2.570100 -0.009248 0.221583 -1.000564 1.538707 -0.278893 -2.824975 3.854071 0.439209 -4.839855 -9.137569 -3.805597 -11.925478 4.211688 -4.115018 20.492282 3.158900 -2.584400 11.528600 -7.543722 3.619531 -2.118461 -88.032216 3.341856 23.132046 9.957694 -17.786108 -1.578823 -0.879747 -2.631268 14.478211 14.504785 23.011365 6.538000 -7.125000 0.000000 0.000000 -16.291000 55.833100 -4.414000 5.801693 -2.868867 -2.318598 84.279999 -4.725356 18.269382 -13.894850 20.580189 -3.252735 0.113839 -0.233400 12.507295 -5.414579 8.127755 -0.810300 7.125000 0.000000 0.000000 15.307300 -21.705300 8.875400 
